<svg xmlns="http://www.w3.org/2000/svg" width="1000" height="540" viewBox="0 0 1000 540" role="img"><title>01 / Generator-verifier：生成与验证分开</title><desc>自拟文档更新案例；每次拒绝都应带回可执行的反馈</desc><defs><marker id="arrow" viewBox="0 0 10 10" refX="9" refY="5" markerWidth="7" markerHeight="7" orient="auto-start-reverse"><path d="M 0 0 L 10 5 L 0 10 z" fill="#547080"/></marker></defs><rect width="1000" height="540" rx="20" fill="#f5f7fa"/><g font-family="PingFang SC,Microsoft YaHei,Noto Sans CJK SC,sans-serif"><text x="40" y="47" font-size="27" font-weight="700" fill="#182b3a">01 / Generator-verifier：生成与验证分开</text><text x="40" y="79" font-size="17" fill="#536677">自拟文档更新案例；每次拒绝都应带回可执行的反馈</text><rect x="490" y="115" width="340" height="65" rx="12" fill="#fff0d4" stroke="#adbdca"/><text x="660.0" y="154.5" text-anchor="middle" font-size="21" font-weight="600" fill="#182b3a">验收标准 + 来源材料</text><rect x="40" y="230" width="160" height="85" rx="12" fill="#e2edf9" stroke="#adbdca"/><text x="120.0" y="279.5" text-anchor="middle" font-size="21" font-weight="600" fill="#182b3a">更新任务</text><rect x="285" y="230" width="200" height="85" rx="12" fill="#e2edf9" stroke="#adbdca"/><text x="385.0" y="267.5" text-anchor="middle" font-size="21" font-weight="600" fill="#182b3a">Generator</text><text x="385.0" y="295.5" text-anchor="middle" font-size="16" fill="#536677">生成 / 修订草稿</text><rect x="560" y="230" width="200" height="85" rx="12" fill="#eae4f7" stroke="#adbdca"/><text x="660.0" y="267.5" text-anchor="middle" font-size="21" font-weight="600" fill="#182b3a">Verifier</text><text x="660.0" y="295.5" text-anchor="middle" font-size="16" fill="#536677">检查与反馈</text><rect x="825" y="230" width="135" height="85" rx="12" fill="#def1e8" stroke="#adbdca"/><text x="892.5" y="267.5" text-anchor="middle" font-size="21" font-weight="600" fill="#182b3a">交付</text><text x="892.5" y="295.5" text-anchor="middle" font-size="16" fill="#536677">通过验证</text><polyline points="200,272 285,272" fill="none" stroke="#547080" stroke-width="2.4" marker-end="url(#arrow)"/><polyline points="485,272 560,272" fill="none" stroke="#547080" stroke-width="2.4" marker-end="url(#arrow)"/><polyline points="660,180 660,230" fill="none" stroke="#547080" stroke-width="2.4" marker-end="url(#arrow)"/><polyline points="760,272 825,272" fill="none" stroke="#547080" stroke-width="2.4" marker-end="url(#arrow)"/><polyline points="610,315 610,370 385,370 385,315" fill="none" stroke="#547080" stroke-width="2.4" marker-end="url(#arrow)" stroke-dasharray="7 5"/><text x="425" y="402" text-anchor="middle" font-size="16" fill="#536677">不通过且可重试：缺项、依据、修改要求</text><rect x="595" y="435" width="335" height="65" rx="12" fill="#fff0d4" stroke="#adbdca"/><text x="762.5" y="462.5" text-anchor="middle" font-size="21" font-weight="600" fill="#182b3a">停止并升级处理</text><text x="762.5" y="490.5" text-anchor="middle" font-size="16" fill="#536677">达到上限 / 证据无法补足</text><polyline points="710,315 710,435" fill="none" stroke="#547080" stroke-width="2.4" marker-end="url(#arrow)"/><text x="812" y="360" text-anchor="middle" font-size="16" fill="#536677">兜底分支</text></g></svg>